<svg xmlns="http://www.w3.org/2000/svg" width="256" height="256" viewBox="0 0 100 100"><rect width="100" height="100" rx="20" fill="#7d6ee7"></rect><path fill="#fff" d="M26.69 49.59L26.69 49.59Q29.66 51.13 31.32 54.23Q32.99 57.34 32.99 62.10L32.99 62.10L32.99 73.89Q32.99 77.05 34.20 78.35Q35.42 79.66 38.03 79.75L38.03 79.75Q38.30 80.83 38.30 81.81L38.30 81.81Q38.30 83.08 37.49 83.88Q36.68 84.69 35.06 84.69L35.06 84.69Q31.28 84.69 28.89 82.00Q26.51 79.30 26.51 73.89L26.51 73.89L26.51 62.83Q26.51 53.47 19.67 52.38L19.67 52.38Q19.31 51.94 19.17 51.08Q19.04 50.23 19.04 49.59L19.04 49.59Q19.04 48.97 19.22 48.16Q19.40 47.34 19.67 46.80L19.67 46.80Q26.51 45.73 26.51 36.45L26.51 36.45L26.51 26.02Q26.51 20.62 28.89 17.96Q31.28 15.30 35.06 15.30L35.06 15.30Q38.30 15.30 38.30 18.19L38.30 18.19Q38.30 19.18 38.03 20.26L38.03 20.26Q35.42 20.26 34.20 21.56Q32.99 22.87 32.99 26.11L32.99 26.11L32.99 37.09Q32.99 41.95 31.32 45.00Q29.66 48.06 26.69 49.59ZM73.31 49.59L73.31 49.59Q70.34 48.06 68.67 45.00Q67.01 41.95 67.01 37.09L67.01 37.09L67.01 26.11Q67.01 22.87 65.80 21.56Q64.58 20.26 61.97 20.26L61.97 20.26Q61.70 19.18 61.70 18.19L61.70 18.19Q61.70 15.30 64.94 15.30L64.94 15.30Q68.72 15.30 71.11 17.96Q73.49 20.62 73.49 26.02L73.49 26.02L73.49 36.45Q73.49 45.73 80.33 46.80L80.33 46.80Q80.60 47.34 80.78 48.16Q80.96 48.97 80.96 49.59L80.96 49.59Q80.96 50.23 80.83 51.08Q80.69 51.94 80.33 52.38L80.33 52.38Q73.49 53.47 73.49 62.83L73.49 62.83L73.49 73.89Q73.49 79.30 71.11 82.00Q68.72 84.69 64.94 84.69L64.94 84.69Q63.32 84.69 62.51 83.88Q61.70 83.08 61.70 81.81L61.70 81.81Q61.70 80.83 61.97 79.75L61.97 79.75Q64.58 79.66 65.80 78.35Q67.01 77.05 67.01 73.89L67.01 73.89L67.01 62.10Q67.01 57.34 68.67 54.23Q70.34 51.13 73.31 49.59Z"></path></svg>